# xmcd
#
# Track frame offsets:
#	150
#	19777
#	39707
#	65796
#	88750
#	109327
#	129341
#	152107
#	173645
#	193102
#	217298
#
# Disc length: 3150 seconds
#
# Revision: 0
# Processed by: cddbd v1.4PL0 Copyright (c) Steve Scherf et al.
# Submitted via: EasyCDDAExtractor 4.6.9.1
#
DISCID=a20c4c0b
DTITLE=деспоима бамдг - цеиа CD1
DYEAR=2002
DGENRE=еккгмийа POP
TTITLE0=амабеис жытиес
TTITLE1=ока одгцоум се сема
TTITLE2=бцес ап то луако лоу
TTITLE3=око кеипеис
TTITLE4=дейа леяес дейа мувтес
TTITLE5=ав йаядоука лоу
TTITLE6=хекы ма се ды
TTITLE7=ти йамы ломг лоу
TTITLE8=кахос амхяыпос
TTITLE9=ломо ацапг соу фгты
TTITLE10=цеиа
EXTD=
EXTT0=
EXTT1=
EXTT2=
EXTT3=
EXTT4=
EXTT5=
EXTT6=
EXTT7=
EXTT8=
EXTT9=
EXTT10=
PLAYORDER=
